<svg xmlns="http://www.w3.org/2000/svg" viewBox="0 0 89.41 89.41"><g fill="#e5225a"><path d="m72.67 50.32c.27-1.67 1.09-3.2 2.37-4.3.89-.77 4.32-3.72 4.4-3.8 5.49-4.79 14.78-20.11 20.26-29.6 1.57-2.71-1.12-5.89-4.05-4.81-10.3 3.8-27 10.39-32.54 15.1-.08.07-3.51 3.02-4.41 3.79-1.28 1.1-2.92 1.69-4.61 1.71-14.87.17-19.26 5.99-19.26 5.99l1.94 2.02s8.63-1.25 13.51 4.42l-4.11 3.52 2.48 2.88-2.86 2.46 5.34 6.41.56-.69-2.47-6.73 6.17 7.09 1.45-1.25-1.81-7.84s3.09 3.35 4.92 5.46c4.89 5.66 2.25 14.12 2.25 14.12l1.71 2.21s6.4-3.48 8.78-18.16Zm.39-15.86c-.98.85-2.48.75-3.33-.23-.85-.98-.75-2.48.23-3.33l9.73-8.25c.98-.85 2.48-.75 3.33.23.85.98.75 2.48-.23 3.33Z"/><path d="M44.7 0C20.05 0 0 20.05 0 44.7s20.05 44.7 44.7 44.7 44.7-20.05 44.7-44.7S69.35 0 44.7 0Zm2.24 85.37c-14.49.78-27.46-6.07-35.27-16.88-.4-.55.27-1.23.83-.85 9.89 6.81 25.61 4.78 35.76-13.7C-2.92 68.18 3.43 3.39 44.7 3.98c14.45.21 27.16 7.57 34.39 18.95l.14-.12c.85-.73 2.11-.84 3.01-.17 1.23.92 1.26 2.7.17 3.67l-.96.83c2.68 5.59 4.13 11.88 3.97 18.52-.49 21.12-17.37 38.56-38.47 39.7Z"/></g></svg>