<?xml version="1.0" encoding="UTF-8"?><svg id="Calque_2" xmlns="http://www.w3.org/2000/svg" viewBox="0 0 508.35 89.41"><defs><style>.cls-1{fill:#0f0f0f;}</style></defs><g id="Layer_1"><g><path class="cls-1" d="m72.67,50.32c.27-1.67,1.09-3.2,2.37-4.3.89-.77,4.32-3.72,4.4-3.8,5.49-4.79,14.78-20.11,20.26-29.6,1.57-2.71-1.12-5.89-4.05-4.81-10.3,3.8-27,10.39-32.54,15.1-.08.07-3.51,3.02-4.41,3.79-1.28,1.1-2.92,1.69-4.61,1.71-14.87.17-19.26,5.99-19.26,5.99l1.94,2.02s8.63-1.25,13.51,4.42l-4.11,3.52,2.48,2.88-2.86,2.46,5.34,6.41.56-.69-2.47-6.73,6.17,7.09,1.45-1.25-1.81-7.84s3.09,3.35,4.92,5.46c4.89,5.66,2.25,14.12,2.25,14.12l1.71,2.21s6.4-3.48,8.78-18.16Zm.39-15.86c-.98.85-2.48.75-3.33-.23-.85-.98-.75-2.48.23-3.33l9.73-8.25c.98-.85,2.48-.75,3.33.23.85.98.75,2.48-.23,3.33l-9.73,8.25Z"/><path class="cls-1" d="m44.7,0C20.05,0,0,20.05,0,44.7s20.05,44.7,44.7,44.7,44.7-20.05,44.7-44.7S69.35,0,44.7,0Zm2.24,85.37c-14.49.78-27.46-6.07-35.27-16.88-.4-.55.27-1.23.83-.85,9.89,6.81,25.61,4.78,35.76-13.7C-2.92,68.18,3.43,3.39,44.7,3.98c14.45.21,27.16,7.57,34.39,18.95l.14-.12c.85-.73,2.11-.84,3.01-.17,1.23.92,1.26,2.7.17,3.67l-.96.83c2.68,5.59,4.13,11.88,3.97,18.52-.49,21.12-17.37,38.56-38.47,39.7Z"/></g><g><path class="cls-1" d="m133.88,42.97h14.26c1.35,0,2.41.99,2.41,2.48s-1.06,2.48-2.41,2.48h-14.26v16.88h16.6c1.35,0,2.41.92,2.41,2.48s-1.06,2.48-2.41,2.48h-19.37c-1.63,0-2.77-1.06-2.77-2.55V24.1c0-1.49,1.21-2.55,2.77-2.55h19.37c1.35,0,2.41.99,2.41,2.48s-1.06,2.48-2.41,2.48h-16.6v16.46Z"/><path class="cls-1" d="m174.47,67.37c0,1.56-1.06,2.55-2.7,2.55s-2.69-.99-2.69-2.55V21.61c0-1.56,1.06-2.55,2.69-2.55s2.7.99,2.7,2.55v45.76Z"/><path class="cls-1" d="m197.17,53.68v4.33c0,4.4,3.26,7.52,7.31,7.52,2.55,0,4.54-1.06,5.89-1.92.78-.5,1.35-.78,2.13-.78,1.28,0,2.34,1.13,2.34,2.48,0,1.13-.64,1.84-1.77,2.55-2.06,1.28-4.89,2.48-8.58,2.48-7.31,0-12.7-5.18-12.7-12.34v-11.78c0-7.16,6.1-12.13,12.41-12.13s12.41,4.97,12.41,12.13v4.68c0,1.56-1.14,2.77-2.84,2.77h-16.6Zm14.05-7.45c0-4.04-3.12-7.31-7.02-7.31s-7.02,3.05-7.02,7.31v3.05h14.05v-3.05Z"/><path class="cls-1" d="m240.24,67.65l-10.36-29.65c-.14-.43-.21-.71-.21-1.06,0-1.28,1.21-2.41,2.77-2.41,1.35,0,2.2.71,2.55,1.84l7.45,22.99.85,2.84.85-2.84,7.45-22.99c.36-1.14,1.21-1.84,2.55-1.84,1.56,0,2.77,1.13,2.77,2.41,0,.35-.07.64-.21,1.06l-10.36,29.65c-.5,1.35-1.35,2.27-3.05,2.27s-2.55-.92-3.05-2.27Z"/><path class="cls-1" d="m275.92,53.68v4.33c0,4.4,3.26,7.52,7.31,7.52,2.55,0,4.54-1.06,5.89-1.92.78-.5,1.35-.78,2.13-.78,1.28,0,2.34,1.13,2.34,2.48,0,1.13-.64,1.84-1.77,2.55-2.06,1.28-4.89,2.48-8.58,2.48-7.31,0-12.7-5.18-12.7-12.34v-11.78c0-7.16,6.1-12.13,12.41-12.13s12.41,4.97,12.41,12.13v4.68c0,1.56-1.14,2.77-2.84,2.77h-16.6Zm14.05-7.45c0-4.04-3.12-7.31-7.02-7.31s-7.02,3.05-7.02,7.31v3.05h14.05v-3.05Z"/><path class="cls-1" d="m317.07,67.37c0,1.56-1.06,2.55-2.7,2.55s-2.7-.99-2.7-2.55v-30.72c0-1.28.92-2.13,2.13-2.13.99,0,1.63.57,2.2,1.28.5.57.92,1.13,1.56,1.13.5,0,.99-.21,1.77-.71,1.56-.99,3.69-2.13,6.74-2.13,5.39,0,10.57,4.97,10.57,12.27v21c0,1.56-1.06,2.55-2.7,2.55s-2.7-.99-2.7-2.55v-21c0-4.18-2.98-7.45-7.09-7.45s-7.09,3.19-7.09,7.45v21Z"/><path class="cls-1" d="m370.36,69.78c-1.63,0-2.77-1.06-2.77-2.55V23.95c0-1.56,1.14-2.55,2.77-2.55s2.77.99,2.77,2.55v40.86h15.96c1.35,0,2.34.85,2.34,2.48s-.99,2.48-2.34,2.48h-18.73Z"/><path class="cls-1" d="m427.89,68.01c0,1.35-.92,2.06-2.2,2.06-.92,0-1.63-.71-2.2-1.42-.5-.57-.78-.99-1.42-.99-.71,0-1.28.43-1.99.85-1.56.92-3.19,1.84-5.67,1.84-6.38,0-11.21-4.33-11.21-10.85s5.46-10.22,12.49-10.22h6.81v-2.98c0-3.9-2.91-7.38-6.95-7.38-2.13,0-3.9.78-5.46,1.56-.57.28-1.42.71-2.13.71-1.42,0-2.41-1.14-2.41-2.41,0-1.21.85-1.99,1.92-2.55,1.91-.99,4.96-2.13,8.09-2.13,6.67,0,12.34,5.18,12.34,12.2v21.71Zm-12.2-14.33c-4.11,0-7.17,1.99-7.17,5.82s2.98,6.03,6.95,6.03,7.02-2.27,7.02-6.24v-5.6h-6.81Z"/><path class="cls-1" d="m445.63,67.87V21.68c0-1.56,1.06-2.55,2.7-2.55s2.7.99,2.7,2.55v14.61c0,.43.28.78.64.78s.78-.21,1.13-.5c1.77-1.35,4.04-2.48,6.53-2.48,6.53,0,11.42,4.97,11.42,12.34v11.56c0,7.16-5.04,12.34-11.21,12.34-2.7,0-4.61-1.13-6.03-1.99-.78-.5-1.35-.78-1.92-.78s-1.06.43-1.49.92c-.57.71-1.35,1.42-2.34,1.42-1.06,0-2.13-.71-2.13-2.06Zm19.72-21.42c0-4.11-3.19-7.52-7.17-7.52s-7.16,3.33-7.16,7.52v11.56c0,4.04,3.19,7.52,7.16,7.52,4.19,0,7.17-3.69,7.17-7.52v-11.56Z"/><path class="cls-1" d="m491.61,44.67c0,3.12,3.97,4.26,7.02,5.18,4.54,1.35,9.72,3.26,9.72,9.93,0,5.96-4.68,10.57-11.56,10.57-3.12,0-5.6-.71-8.3-2.06-1.42-.71-2.06-1.49-2.06-2.77,0-1.49,1.21-2.41,2.48-2.41.71,0,1.49.28,2.34.78,1.21.64,3.48,1.63,5.53,1.63,3.76,0,6.24-2.55,6.24-5.6,0-3.26-3.19-4.61-6.95-5.68-3.76-1.06-9.72-3.33-9.72-9.58,0-5.89,5.39-10.57,11.49-10.57,3.05,0,5.75.85,7.73,1.92,1.13.57,1.84,1.35,1.84,2.55,0,1.28-1.06,2.34-2.41,2.34-.64,0-1.13-.28-1.77-.57-1.7-.78-3.12-1.42-5.39-1.42-3.33,0-6.24,2.55-6.24,5.75Z"/></g></g></svg>